<svg xmlns="http://www.w3.org/2000/svg" width="100" height="36" fill="none"><mask id="a" fill="#fff"><path d="M.557 0h99v36h-99V0Z"/></mask><path fill="#fff" d="M99.557 35h-99v2h99v-2Z" mask="url(#a)"/><path stroke="#fff" stroke-linecap="round" stroke-linejoin="round" stroke-width="2" d="m4.557 14.667 25.333-12L17.89 28l-2.666-10.667-10.667-2.666Z"/><path fill="#fff" d="M54.127 10.64h1.492V22h-1.554v-8.508l.078.5-2.797 6.43h-1.11l-2.796-6.274.078-.656V22h-1.555V10.64h1.492l3.336 7.5 3.336-7.5Zm7.258 11.477c-.703 0-1.305-.138-1.805-.414a2.759 2.759 0 0 1-1.148-1.203c-.26-.531-.39-1.17-.39-1.914v-1.32c0-.735.13-1.362.39-1.883a2.713 2.713 0 0 1 1.148-1.195c.5-.277 1.102-.415 1.805-.415.703 0 1.305.139 1.805.415.5.27.88.669 1.14 1.195.266.52.399 1.148.399 1.883v1.343c0 .74-.133 1.373-.399 1.899-.26.52-.64.92-1.14 1.195-.5.276-1.102.414-1.805.414Zm0-1.515c.557 0 .987-.175 1.29-.524.306-.349.46-.838.46-1.469v-1.343c0-.63-.154-1.118-.46-1.461-.303-.344-.733-.516-1.29-.516s-.99.172-1.297.516c-.302.343-.453.83-.453 1.46v1.344c0 .63.151 1.12.453 1.47.307.348.74.523 1.297.523Zm8.883 1.515c-.74 0-1.373-.138-1.899-.414a2.806 2.806 0 0 1-1.195-1.203c-.276-.526-.414-1.162-.414-1.906v-1.336c0-.735.138-1.362.414-1.883a2.77 2.77 0 0 1 1.195-1.188c.526-.275 1.16-.414 1.899-.414.422 0 .817.053 1.187.157.375.099.711.245 1.008.437.297.193.544.427.742.703l-1.148 1.032a2.383 2.383 0 0 0-.805-.602 2.284 2.284 0 0 0-.96-.21c-.615 0-1.092.17-1.43.515-.339.343-.508.828-.508 1.453v1.336c0 .64.166 1.135.5 1.484.338.35.817.524 1.437.524.339 0 .662-.076.969-.227.307-.151.573-.365.797-.64l1.148 1.109c-.203.27-.453.502-.75.695a3.59 3.59 0 0 1-1.007.43 4.55 4.55 0 0 1-1.18.148Zm7.078-4.773 2.203-3.453h1.922l-3.398 4.851-.727-1.398Zm-2.383-3.453h1.594V22h-1.594v-8.11Zm2.453 4.687 1.242-.82L81.948 22h-2.133l-2.399-3.422Zm-1.68-1.398h2.93v1.515h-2.93V17.18Zm8.399 3.383h3c.318 0 .563-.089.734-.266.172-.177.258-.427.258-.75v-.024c0-.338-.086-.601-.258-.789-.171-.187-.416-.28-.734-.28h-3v-1.438h3c.27 0 .48-.068.625-.203.146-.136.219-.329.219-.579 0-.286-.073-.507-.219-.664-.146-.161-.349-.242-.61-.242h-3.015v-1.437h3.07c.755 0 1.341.177 1.758.53.417.35.625.845.625 1.485 0 .495-.153.904-.46 1.227-.308.318-.74.52-1.298.61.605.114 1.073.361 1.407.741.333.375.5.847.5 1.414v.024c0 .661-.224 1.174-.672 1.539-.443.36-1.07.539-1.883.539h-3.047v-1.438Zm-.938-6.672h1.586V22h-1.585v-8.11Zm13.235 2.968c0-.53-.143-.942-.43-1.234-.281-.297-.682-.445-1.203-.445-.323 0-.64.05-.953.148-.307.1-.58.237-.82.414l-1.164-.797c.307-.37.71-.656 1.21-.86a4.367 4.367 0 0 1 1.68-.312c.672 0 1.248.12 1.727.36.479.234.844.578 1.094 1.031.25.448.375.99.375 1.625V22h-1.516v-5.14Zm-1.984 5.258c-1 0-1.748-.206-2.243-.617-.495-.417-.742-1.047-.742-1.89 0-.803.227-1.404.68-1.805.453-.401 1.138-.602 2.055-.602h2.304l.11 1.281h-2.407c-.416 0-.729.094-.937.282-.203.182-.305.463-.305.843 0 .412.136.716.406.914.276.198.693.297 1.25.297.61 0 1.063-.065 1.36-.195.302-.13.453-.333.453-.61l.164 1.141c-.14.219-.315.399-.523.54-.204.14-.44.244-.711.312a3.52 3.52 0 0 1-.914.11Z"/></svg>