<svg xmlns="http://www.w3.org/2000/svg" width="195" height="52" fill="none"><g fill="#fff" clip-path="url(#a)"><path d="m7.057 7.14 7.049 7.131-4.917 4.982-4.924 4.974h6.061L22.3 12.114 34.273 0H28.21l-5.537 5.603-5.538 5.602L11.6 5.603 6.06 0H0l7.057 7.14ZM102.818 15.95v8.277l7.414-.022 7.406-.023.663-.211c1.169-.363 2.036-.892 2.843-1.722 2.353-2.417 2.353-6.404 0-8.82-.807-.831-1.681-1.36-2.843-1.722l-.663-.204-5.257-.03-5.264-.023V7.682H102.818v8.269Zm14.676.054c.875.46 1.32 1.45 1.056 2.348a2.144 2.144 0 0 1-1.026 1.3l-.414.226-4.993.022-5 .023v-4.168l5 .022 4.993.023.384.204ZM125.864 11.134c0 1.904.021 5.629.05 8.273l.044 4.82H130V7.682h-4.136v3.452ZM47.864 15.955v8.272h4.296l7.461-5.616c4.1-3.089 7.484-5.616 7.522-5.616.03 0 .053 2.527.053 5.616v5.616H71.5V7.682h-4.365l-7.446 5.692c-4.085 3.127-7.453 5.692-7.476 5.692-.022 0-.045-2.565-.045-5.692V7.682h-4.304v8.273ZM75.636 15.903v8.222h21.866v2.466h3.543v-6.727H97.426V7.683H93.204v12.182h-13.27V7.683h-4.298v8.221ZM24.506 16.198c-4.374 4.35-7.96 7.94-7.96 7.978 0 .03 1.329.051 2.955.051h2.948l5.903-5.872 5.904-5.872H40.085v11.744H44.318V8.273H32.474l-7.968 7.925ZM40.182 39.296v12.113h4.272v-7.714l6.282-.023 6.274-.023.75-.212c1.49-.409 3.065-1.378 4.024-2.483 1.514-1.75 2.197-3.892 2.002-6.33-.27-3.391-2.661-6.276-5.967-7.2l-.735-.204-8.447-.023-8.455-.015v12.114Zm16.573-7.677c.66.197 1.229.545 1.716 1.052 2.084 2.196 1.072 5.822-1.844 6.587-.375.098-1.319.113-6.304.113h-5.869V31.498h5.944c5.225 0 5.997.015 6.357.12ZM103.094 34.287c-2.845.194-5.152.941-7.193 2.337-1.85 1.254-3.044 2.837-3.545 4.674-.214.806-.236 2.792-.037 3.546.464 1.74 1.415 3.143 2.963 4.352 2.572 2.016 5.675 2.92 9.61 2.793 3.435-.112 6.243-1.068 8.439-2.882.678-.56 1.422-1.426 1.29-1.508-.199-.105-4.068-1.71-4.142-1.71-.044 0-.273.202-.509.455-1.032 1.068-2.601 1.777-4.451 2.016-.929.12-2.587.045-3.42-.15-2.513-.581-4.407-2.172-4.864-4.075-.2-.866-.06-2.098.339-2.905 1.113-2.254 4.297-3.658 7.569-3.344 1.54.15 2.955.604 3.906 1.269.302.216.98.88 1.179 1.157.089.135.221.082 2.248-.776l2.145-.911-.155-.231c-.309-.456-1.363-1.441-1.983-1.86-1.636-1.097-3.758-1.858-5.962-2.142-.7-.082-2.749-.15-3.427-.105ZM128.405 34.316c-2.285.201-4.042.686-5.852 1.61-2.413 1.246-4.132 3.147-4.743 5.25-.211.708-.287 2.356-.151 3.176.332 2.073 1.652 3.9 3.868 5.361 1.456.955 3.002 1.573 4.804 1.931 5.482 1.081 11.13-.358 13.92-3.541.226-.254.4-.478.384-.485a93.596 93.596 0 0 0-2.194-.91l-2.172-.88-.422.44c-.543.56-.98.873-1.719 1.238-2.458 1.208-5.92 1.208-8.325.008-2.111-1.06-3.295-2.826-3.137-4.675.106-1.186.49-1.954 1.403-2.856 1.267-1.245 2.797-1.887 4.992-2.103 1.734-.164 3.596.15 5.037.85.678.328.89.485 1.455 1.037l.656.656 2.127-.888c1.168-.484 2.141-.91 2.149-.947.037-.111-.785-1.029-1.312-1.454-2.248-1.811-5.188-2.766-8.77-2.855-.686-.015-1.584 0-1.998.037ZM72.665 34.345c-1.995.197-3.885 1.152-5.316 2.697-1.246 1.342-1.987 2.887-2.269 4.759-.133.894-.096 2.349.082 3.197.756 3.614 3.558 6.335 7.088 6.88 1.03.167 8.696.16 9.734 0 1.787-.273 3.418-1.121 4.723-2.462a8.613 8.613 0 0 0 2.41-4.827c.274-1.864.037-3.644-.705-5.228-.882-1.902-2.157-3.235-3.966-4.152a8.1 8.1 0 0 0-3.04-.872c-.979-.09-7.807-.083-8.741.008Zm9.09 4.705c1.475.53 2.476 1.6 2.84 3.054.14.568.14 1.455 0 2.068-.342 1.478-1.573 2.736-3.01 3.084-.69.167-8.253.167-8.95 0-.734-.174-1.327-.53-1.92-1.136-.882-.895-1.26-1.925-1.186-3.22.103-1.955 1.379-3.478 3.24-3.903.748-.166 8.489-.12 8.986.053ZM143.591 43.137v8.272l2.127-.007h2.12l7.276-5.601 7.275-5.602.023 5.61.014 5.6h4.211V34.864h-4.181l-7.305 5.715-7.313 5.723-.022-5.723-.015-5.715h-4.21v8.273ZM170.773 43.137v8.272h4.35l7.476-5.616 7.468-5.616.023 5.616.015 5.616h4.304V34.864h-4.312l-7.491 5.73-7.491 5.738-.023-5.738-.015-5.73h-4.304v8.273Z"/></g><defs><clipPath id="a"><path fill="#fff" d="M0 0h194.409v52H0z"/></clipPath></defs></svg>