<svg width="12" height="8" viewBox="0 0 12 8" fill="none" xmlns="http://www.w3.org/2000/svg">
<path d="M11.9685 1.0205C11.9915 0.945 12.0025 0.875 11.9995 0.8125C11.992 0.6315 11.8675 0.5 11.5745 0.5H10.2655C9.935 0.5 9.7825 0.7 9.6935 0.9005C9.6935 0.9005 8.8775 2.58 7.937 3.6875C7.632 4.008 7.477 4 7.312 4C7.2235 4 7 3.893 7 3.5995V1.007C7 0.66 6.9135 0.5 6.634 0.5H4.3095C4.106 0.5 4 0.66 4 0.8205C4 1.154 4.449 1.234 4.5 2.1685V3.98C4.5 4.42 4.4235 4.5 4.2585 4.5C3.8135 4.5 2.9375 3 2.351 1.034C2.224 0.647 2.097 0.5 1.7665 0.5H0.445C0.0635002 0.5 0 0.687 0 0.887C0 1.2475 0.3 3.1965 1.9375 5.4375C3.125 7.0625 4.6895 8 6.0745 8C6.9135 8 6.9995 7.7865 6.9995 7.453V5.967C7 5.5665 7.0915 5.5 7.3585 5.5C7.549 5.5 7.9375 5.625 8.6875 6.5C9.5525 7.509 9.7095 8 10.2055 8H11.5145C11.8185 8 11.993 7.8725 12 7.625C12.0015 7.562 11.9925 7.4915 11.972 7.413C11.875 7.125 11.43 6.421 10.875 5.75C10.5675 5.3785 10.264 5.0105 10.1245 4.8105C10.031 4.68 9.9955 4.588 10 4.5C10.0045 4.4075 10.0525 4.3195 10.1245 4.1965C10.1115 4.1965 11.8035 1.821 11.9685 1.0205Z" fill="#222222"/>
</svg>
