<svg width="21" height="15" viewBox="0 0 21 15" fill="none" xmlns="http://www.w3.org/2000/svg">
<path d="M20.5931 2.20301C20.4792 1.78041 20.2566 1.39501 19.9475 1.08518C19.6383 0.775338 19.2534 0.551868 18.8311 0.437007C17.2651 0.00700739 11.0001 7.59651e-06 11.0001 7.59651e-06C11.0001 7.59651e-06 4.73609 -0.00699261 3.16909 0.404007C2.74701 0.524154 2.36291 0.750785 2.05365 1.06214C1.7444 1.3735 1.52037 1.75913 1.40309 2.18201C0.990086 3.74801 0.986085 6.99601 0.986085 6.99601C0.986085 6.99601 0.982085 10.26 1.39209 11.81C1.62209 12.667 2.29709 13.344 3.15509 13.575C4.73709 14.005 10.9851 14.012 10.9851 14.012C10.9851 14.012 17.2501 14.019 18.8161 13.609C19.2386 13.4943 19.6238 13.2714 19.9337 12.9622C20.2436 12.653 20.4675 12.2682 20.5831 11.846C20.9971 10.281 21.0001 7.03401 21.0001 7.03401C21.0001 7.03401 21.0201 3.76901 20.5931 2.20301ZM8.99609 10.005L9.00109 4.00501L14.2081 7.01001L8.99609 10.005Z" fill="white"/>
</svg>
